<svg width="89" height="15" viewBox="0 0 89 15" fill="none" xmlns="http://www.w3.org/2000/svg">
<g id="PrimeDeal">
<path id="Vector" d="M86.2788 14V0.0726929H88.3393V14H86.2788Z" fill="white"/>
<path id="Vector_2" d="M81.8166 4.46076H83.8771V14H81.8166V12.6264C81.0408 13.7075 79.9279 14.248 78.4779 14.248C77.1678 14.248 76.0486 13.7647 75.1201 12.7981C74.1916 11.8187 73.7274 10.6295 73.7274 9.23038C73.7274 7.81857 74.1916 6.62935 75.1201 5.6627C76.0486 4.69606 77.1678 4.21274 78.4779 4.21274C79.9279 4.21274 81.0408 4.74694 81.8166 5.81533V4.46076ZM76.6464 11.4244C77.2187 11.9968 77.9373 12.2829 78.8022 12.2829C79.6671 12.2829 80.3858 11.9968 80.9581 11.4244C81.5305 10.8393 81.8166 10.108 81.8166 9.23038C81.8166 8.35277 81.5305 7.62779 80.9581 7.05543C80.3858 6.47036 79.6671 6.17782 78.8022 6.17782C77.9373 6.17782 77.2187 6.47036 76.6464 7.05543C76.074 7.62779 75.7878 8.35277 75.7878 9.23038C75.7878 10.108 76.074 10.8393 76.6464 11.4244Z" fill="white"/>
<path id="Vector_3" d="M64.8348 10.108C64.9875 10.833 65.3372 11.3926 65.8841 11.7869C66.4311 12.1685 67.0988 12.3593 67.8874 12.3593C68.9812 12.3593 69.8016 11.965 70.3485 11.1764L72.0465 12.1685C71.1053 13.5548 69.7126 14.248 67.8683 14.248C66.3166 14.248 65.0638 13.7774 64.1098 12.8362C63.1559 11.8823 62.679 10.6804 62.679 9.23038C62.679 7.80586 63.1496 6.61663 64.0908 5.6627C65.032 4.69606 66.2403 4.21274 67.7157 4.21274C69.1148 4.21274 70.2595 4.70242 71.1498 5.68178C72.0529 6.66115 72.5044 7.85037 72.5044 9.24946C72.5044 9.46569 72.4789 9.75186 72.4281 10.108H64.8348ZM64.8158 8.42909H70.4248C70.2849 7.65323 69.9606 7.06815 69.4518 6.67386C68.9558 6.27958 68.3707 6.08243 67.6966 6.08243C66.9335 6.08243 66.2975 6.29229 65.7887 6.71202C65.28 7.13175 64.9557 7.7041 64.8158 8.42909Z" fill="white"/>
<path id="Vector_4" d="M54.9552 0.64505C56.7867 0.64505 58.3067 1.28736 59.515 2.57198C60.736 3.8566 61.3465 5.44011 61.3465 7.32253C61.3465 9.19222 60.736 10.7757 59.515 12.0731C58.3067 13.3577 56.7867 14 54.9552 14H49.7086V0.64505H54.9552ZM54.9552 11.9014C56.2144 11.9014 57.2383 11.4689 58.0268 10.604C58.8281 9.73914 59.2288 8.6453 59.2288 7.32253C59.2288 5.98703 58.8281 4.8932 58.0268 4.04102C57.2383 3.17613 56.2144 2.74369 54.9552 2.74369H51.9026V11.9014H54.9552Z" fill="white"/>
<path id="Vector_5" d="M40.0924 10.108C40.245 10.833 40.5948 11.3926 41.1417 11.7869C41.6886 12.1685 42.3564 12.3593 43.145 12.3593C44.2388 12.3593 45.0592 11.965 45.6061 11.1764L47.3041 12.1685C46.3629 13.5548 44.9701 14.248 43.1259 14.248C41.5742 14.248 40.3213 13.7774 39.3674 12.8362C38.4135 11.8823 37.9365 10.6804 37.9365 9.23038C37.9365 7.80586 38.4071 6.61663 39.3483 5.6627C40.2895 4.69606 41.4978 4.21274 42.9732 4.21274C44.3723 4.21274 45.517 4.70242 46.4074 5.68178C47.3104 6.66115 47.762 7.85037 47.762 9.24946C47.762 9.46569 47.7365 9.75186 47.6856 10.108H40.0924ZM40.0733 8.42909H45.6824C45.5425 7.65323 45.2182 7.06815 44.7094 6.67386C44.2134 6.27958 43.6283 6.08243 42.9542 6.08243C42.191 6.08243 41.5551 6.29229 41.0463 6.71202C40.5376 7.13175 40.2132 7.7041 40.0733 8.42909Z" fill="white"/>
<path id="Vector_6" d="M32.6597 4.21274C33.7408 4.21274 34.6121 4.56251 35.2735 5.26205C35.9349 5.9616 36.2656 6.90281 36.2656 8.08567V14H34.2051V8.21922C34.2051 7.55784 34.0397 7.04908 33.709 6.69294C33.3783 6.32409 32.9268 6.13967 32.3545 6.13967C31.7185 6.13967 31.2098 6.34953 30.8282 6.76926C30.4593 7.18898 30.2749 7.81857 30.2749 8.65803V14H28.2144V8.21922C28.2144 7.55784 28.0554 7.04908 27.7375 6.69294C27.4322 6.32409 26.9934 6.13967 26.421 6.13967C25.7978 6.13967 25.2891 6.35589 24.8948 6.78834C24.5005 7.20806 24.3033 7.83129 24.3033 8.65803V14H22.2429V4.46076H24.3033V5.60547C24.9138 4.67698 25.8233 4.21274 27.0316 4.21274C28.2526 4.21274 29.1556 4.71514 29.7407 5.71994C30.3767 4.71514 31.3497 4.21274 32.6597 4.21274Z" fill="white"/>
<path id="Vector_7" d="M19.736 2.6483C19.4816 2.90268 19.1763 3.02987 18.8202 3.02987C18.4641 3.02987 18.1525 2.90268 17.8854 2.6483C17.631 2.3812 17.5038 2.06958 17.5038 1.71345C17.5038 1.35732 17.631 1.05206 17.8854 0.797683C18.1397 0.530583 18.4514 0.397034 18.8202 0.397034C19.1891 0.397034 19.5007 0.530583 19.755 0.797683C20.0094 1.05206 20.1366 1.35732 20.1366 1.71345C20.1366 2.06958 20.0031 2.3812 19.736 2.6483ZM17.79 14V4.46076H19.8504V14H17.79Z" fill="white"/>
<path id="Vector_8" d="M13.3295 6.06333C13.8509 4.88047 14.8303 4.28903 16.2675 4.28903V6.52122C15.479 6.47034 14.7921 6.66113 14.2071 7.09357C13.622 7.5133 13.3295 8.21284 13.3295 9.19221V14H11.269V4.46074H13.3295V6.06333Z" fill="white"/>
<path id="Vector_9" d="M5.25776 0.64505C6.51694 0.64505 7.56626 1.06478 8.40572 1.90423C9.25789 2.74369 9.68398 3.78664 9.68398 5.03311C9.68398 6.26685 9.25789 7.30981 8.40572 8.16198C7.56626 9.00143 6.51694 9.42116 5.25776 9.42116H2.52954V14H0.33551V0.64505H5.25776ZM5.25776 7.36068C5.90643 7.36068 6.44063 7.14446 6.86036 6.71201C7.28009 6.26685 7.48995 5.70721 7.48995 5.03311C7.48995 4.359 7.28009 3.80572 6.86036 3.37328C6.44063 2.92811 5.90643 2.70553 5.25776 2.70553H2.52954V7.36068H5.25776Z" fill="white"/>
</g>
</svg>
